0
SECTION
2
HEADER
9
$INSUNITS
70
4
9
$ACADVER
1
AC1014
9
$HANDSEED
5
FFFF
0
ENDSEC
0
SECTION
2
TABLES
0
TABLE
2
VPORT
5
8
100
AcDbSymbolTable
0
ENDTAB
0
TABLE
2
LTYPE
5
5
100
AcDbSymbolTable
0
LTYPE
5
14
100
AcDbSymbolTableRecord
100
AcDbLinetypeTableRecord
2
BYBLOCK
70
0
0
LTYPE
5
15
100
AcDbSymbolTableRecord
100
AcDbLinetypeTableRecord
2
BYLAYER
70
0
0
ENDTAB
0
TABLE
2
LAYER
5
2
100
AcDbSymbolTable
70
2
0
LAYER
5
50
100
AcDbSymbolTableRecord
100
AcDbLayerTableRecord
2
0
70
0
6
CONTINUOUS
0
ENDTAB
0
TABLE
2
STYLE
5
3
100
AcDbSymbolTable
70
1
0
STYLE
5
11
100
AcDbSymbolTableRecord
100
AcDbTextStyleTableRecord
2
STANDARD
70
0
0
ENDTAB
0
TABLE
2
VIEW
5
6
100
AcDbSymbolTable
70
0
0
ENDTAB
0
TABLE
2
UCS
5
7
100
AcDbSymbolTable
70
0
0
ENDTAB
0
TABLE
2
APPID
5
9
100
AcDbSymbolTable
70
2
0
APPID
5
12
100
AcDbSymbolTableRecord
100
AcDbRegAppTableRecord
2
ACAD
70
0
0
ENDTAB
0
TABLE
2
DIMSTYLE
5
A
100
AcDbSymbolTable
70
1
0
ENDTAB
0
TABLE
2
BLOCK_RECORD
5
1
100
AcDbSymbolTable
70
1
0
BLOCK_RECORD
5
1F
100
AcDbSymbolTableRecord
100
AcDbBlockTableRecord
2
*MODEL_SPACE
0
BLOCK_RECORD
5
1B
100
AcDbSymbolTableRecord
100
AcDbBlockTableRecord
2
*PAPER_SPACE
0
ENDTAB
0
ENDSEC
0
SECTION
2
BLOCKS
0
BLOCK
5
20
100
AcDbEntity
100
AcDbBlockBegin
2
*MODEL_SPACE
0
ENDBLK
5
21
100
AcDbEntity
100
AcDbBlockEnd
0
BLOCK
5
1C
100
AcDbEntity
100
AcDbBlockBegin
2
*PAPER_SPACE
0
ENDBLK
5
1D
100
AcDbEntity
100
AcDbBlockEnd
0
ENDSEC
0
SECTION
2
ENTITIES
0
LWPOLYLINE
5
100
100
AcDbEntity
8
0
100
AcDbPolyline
90
4
70
1
43
0.0
10
50.799999999999997
20
-26.670000000000002
10
50.799999999999997
20
26.670000000000002
10
-50.799999999999997
20
26.670000000000002
10
-50.799999999999997
20
-26.670000000000002
0
LWPOLYLINE
5
101
100
AcDbEntity
8
0
100
AcDbPolyline
90
4
70
1
43
0.0
10
-15.595075036815169
20
-32.514109125051661
10
-50.595075036815167
20
-32.514109125051661
10
-50.59507503681516
20
-61.514109125051668
10
-15.595075036815169
20
-61.514109125051668
0
LWPOLYLINE
5
102
100
AcDbEntity
8
0
100
AcDbPolyline
90
4
70
1
43
0.0
10
-50.815447535589527
20
63.042751952387519
10
-50.815447535589527
20
33.042751952387512
10
-20.815447535589531
20
33.042751952387519
10
-20.815447535589531
20
63.042751952387519
0
LWPOLYLINE
5
103
100
AcDbEntity
8
0
100
AcDbPolyline
90
8
70
1
43
0.0
10
44.973666706079811
20
69.59260608722272
42
-0.41421356237309509
10
54.973666706079797
20
59.592606087222741
10
54.973666706079797
20
-56.961196998616977
42
-0.41421356237309509
10
44.973666706079804
20
-66.96119699861697
10
-47.020318219439837
20
-66.96119699861697
42
-0.41421356237309509
10
-57.020318219439837
20
-56.96119699861697
10
-57.020318219439837
20
59.592606087222713
42
-0.41421356237309709
10
-47.020318219439865
20
69.59260608722272
0
CIRCLE
5
104
100
AcDbEntity
8
0
100
AcDbCircle
10
39.36999999999999
20
24.130000000000003
30
0
40
1.5000000000000036
0
CIRCLE
5
105
100
AcDbEntity
8
0
100
AcDbCircle
10
-36.829999999999998
20
-24.130000000000003
30
0
40
1.5000000000000036
0
CIRCLE
5
106
100
AcDbEntity
8
0
100
AcDbCircle
10
-35.560000000000002
20
24.130000000000003
30
0
40
1.4999999999999991
0
CIRCLE
5
107
100
AcDbEntity
8
0
100
AcDbCircle
10
45.719999999999992
20
-24.130000000000003
30
0
40
1.5000000000000036
0
LWPOLYLINE
5
108
100
AcDbEntity
8
0
100
AcDbPolyline
90
4
70
1
43
0.0
10
50.799999999999997
20
-26.669999999999998
10
-50.799999999999997
20
-26.669999999999995
10
-50.799999999999997
20
26.670000000000002
10
50.799999999999997
20
26.669999999999998
0
CIRCLE
5
109
100
AcDbEntity
8
0
100
AcDbCircle
10
-48.095075036815167
20
-59.014109125051668
30
0
40
1.5000000000000036
0
CIRCLE
5
110
100
AcDbEntity
8
0
100
AcDbCircle
10
-19.595075036815167
20
-35.014109125051661
30
0
40
1.4999999999999991
0
CIRCLE
5
111
100
AcDbEntity
8
0
100
AcDbCircle
10
-48.095075036815167
20
-35.014109125051661
30
0
40
1.5000000000000036
0
CIRCLE
5
112
100
AcDbEntity
8
0
100
AcDbCircle
10
-19.595075036815167
20
-59.014109125051668
30
0
40
1.4999999999999991
0
LWPOLYLINE
5
113
100
AcDbEntity
8
0
100
AcDbPolyline
90
4
70
1
43
0.0
10
-15.595075036815169
20
-32.514109125051661
10
-15.595075036815169
20
-61.514109125051668
10
-50.59507503681516
20
-61.514109125051668
10
-50.595075036815167
20
-32.514109125051661
0
CIRCLE
5
114
100
AcDbEntity
8
0
100
AcDbCircle
10
-22.315447535589527
20
34.542751952387512
30
0
40
0.99999999999999645
0
CIRCLE
5
115
100
AcDbEntity
8
0
100
AcDbCircle
10
-49.315447535589527
20
61.542751952387519
30
0
40
0.99999999999999645
0
CIRCLE
5
116
100
AcDbEntity
8
0
100
AcDbCircle
10
-22.315447535589527
20
61.542751952387519
30
0
40
0.99999999999999645
0
CIRCLE
5
117
100
AcDbEntity
8
0
100
AcDbCircle
10
-49.315447535589527
20
34.542751952387512
30
0
40
0.99999999999999645
0
LWPOLYLINE
5
118
100
AcDbEntity
8
0
100
AcDbPolyline
90
4
70
1
43
0.0
10
-50.815447535589527
20
63.042751952387519
10
-20.815447535589531
20
63.042751952387519
10
-20.815447535589531
20
33.042751952387519
10
-50.815447535589527
20
33.042751952387512
0
ENDSEC
0
SECTION
2
OBJECTS
0
DICTIONARY
5
C
100
AcDbDictionary
3
ACAD_GROUP
350
D
3
ACAD_MLINESTYLE
350
17
0
DICTIONARY
5
D
100
AcDbDictionary
0
DICTIONARY
5
1A
330
C
100
AcDbDictionary
0
DICTIONARY
5
17
100
AcDbDictionary
0
ENDSEC
0
EOF
