0
SECTION
2
HEADER
9
$INSUNITS
70
4
9
$ACADVER
1
AC1014
9
$HANDSEED
5
FFFF
0
ENDSEC
0
SECTION
2
TABLES
0
TABLE
2
VPORT
5
8
100
AcDbSymbolTable
0
ENDTAB
0
TABLE
2
LTYPE
5
5
100
AcDbSymbolTable
0
LTYPE
5
14
100
AcDbSymbolTableRecord
100
AcDbLinetypeTableRecord
2
BYBLOCK
70
0
0
LTYPE
5
15
100
AcDbSymbolTableRecord
100
AcDbLinetypeTableRecord
2
BYLAYER
70
0
0
ENDTAB
0
TABLE
2
LAYER
5
2
100
AcDbSymbolTable
70
2
0
LAYER
5
50
100
AcDbSymbolTableRecord
100
AcDbLayerTableRecord
2
0
70
0
6
CONTINUOUS
0
ENDTAB
0
TABLE
2
STYLE
5
3
100
AcDbSymbolTable
70
1
0
STYLE
5
11
100
AcDbSymbolTableRecord
100
AcDbTextStyleTableRecord
2
STANDARD
70
0
0
ENDTAB
0
TABLE
2
VIEW
5
6
100
AcDbSymbolTable
70
0
0
ENDTAB
0
TABLE
2
UCS
5
7
100
AcDbSymbolTable
70
0
0
ENDTAB
0
TABLE
2
APPID
5
9
100
AcDbSymbolTable
70
2
0
APPID
5
12
100
AcDbSymbolTableRecord
100
AcDbRegAppTableRecord
2
ACAD
70
0
0
ENDTAB
0
TABLE
2
DIMSTYLE
5
A
100
AcDbSymbolTable
70
1
0
ENDTAB
0
TABLE
2
BLOCK_RECORD
5
1
100
AcDbSymbolTable
70
1
0
BLOCK_RECORD
5
1F
100
AcDbSymbolTableRecord
100
AcDbBlockTableRecord
2
*MODEL_SPACE
0
BLOCK_RECORD
5
1B
100
AcDbSymbolTableRecord
100
AcDbBlockTableRecord
2
*PAPER_SPACE
0
ENDTAB
0
ENDSEC
0
SECTION
2
BLOCKS
0
BLOCK
5
20
100
AcDbEntity
100
AcDbBlockBegin
2
*MODEL_SPACE
0
ENDBLK
5
21
100
AcDbEntity
100
AcDbBlockEnd
0
BLOCK
5
1C
100
AcDbEntity
100
AcDbBlockBegin
2
*PAPER_SPACE
0
ENDBLK
5
1D
100
AcDbEntity
100
AcDbBlockEnd
0
ENDSEC
0
SECTION
2
ENTITIES
0
CIRCLE
5
100
100
AcDbEntity
8
0
100
AcDbCircle
10
55
20
21.999999999999996
30
0
40
1.5000000000000036
0
CIRCLE
5
101
100
AcDbEntity
8
0
100
AcDbCircle
10
-80
20
-47.499999999999993
30
0
40
1.5000000000000036
0
CIRCLE
5
102
100
AcDbEntity
8
0
100
AcDbCircle
10
80
20
-47.499999999999993
30
0
40
1.5000000000000036
0
CIRCLE
5
103
100
AcDbEntity
8
0
100
AcDbCircle
10
80
20
47.499999999999993
30
0
40
1.5000000000000036
0
CIRCLE
5
104
100
AcDbEntity
8
0
100
AcDbCircle
10
25
20
38
30
0
40
1.4999999999999991
0
CIRCLE
5
105
100
AcDbEntity
8
0
100
AcDbCircle
10
-80
20
47.499999999999993
30
0
40
1.5000000000000036
0
CIRCLE
5
106
100
AcDbEntity
8
0
100
AcDbCircle
10
-59.36999999999999
20
-39.959999999999994
30
0
40
1.5000000000000036
0
LWPOLYLINE
5
107
100
AcDbEntity
8
0
100
AcDbPolyline
90
4
70
1
43
0.0
10
40.150245980231816
20
-30.298029936052444
42
-0.99999999999999989
10
30.150245980231833
20
-30.298029936052426
10
30.150245980231833
20
1.7019700639475797
42
-0.99999999999999989
10
40.15024598023183
20
1.7019700639475754
0
CIRCLE
5
108
100
AcDbEntity
8
0
100
AcDbCircle
10
16.829999999999998
20
8.3000000000000096
30
0
40
1.5000000000000036
0
LWPOLYLINE
5
109
100
AcDbEntity
8
0
100
AcDbPolyline
90
4
70
1
43
0.0
10
50.15024598023183
20
3.7019700639475728
10
60.15024598023183
20
3.7019700639475728
10
60.15024598023183
20
6.7019701086510564
10
50.15024598023183
20
6.7019701086510564
0
LWPOLYLINE
5
110
100
AcDbEntity
8
0
100
AcDbPolyline
90
4
70
1
43
0.0
10
60.15024598023183
20
-35.298029936052423
10
60.15024598023183
20
-32.298029891348939
10
50.15024598023183
20
-32.298029891348939
10
50.15024598023183
20
-35.298029936052423
0
CIRCLE
5
111
100
AcDbEntity
8
0
100
AcDbCircle
10
-65.719999999999999
20
8.3000000000000096
30
0
40
1.5000000000000036
0
LWPOLYLINE
5
112
100
AcDbEntity
8
0
100
AcDbPolyline
90
4
70
1
43
0.0
10
60.15024598023183
20
-11.298029891348943
10
50.15024598023183
20
-11.298029891348943
10
50.15024598023183
20
-17.29802993605243
10
60.15024598023183
20
-17.29802993605243
0
CIRCLE
5
113
100
AcDbEntity
8
0
100
AcDbCircle
10
15.56
20
-39.959999999999994
30
0
40
1.4999999999999991
0
LWPOLYLINE
5
114
100
AcDbEntity
8
0
100
AcDbPolyline
90
16
70
1
43
0.0
10
-83.103448275862078
20
44.241379310344804
42
-1.024687641678532
10
-76.741379310344811
20
50.603448275862064
42
0.205257701954636
10
-69.5
20
47.499999999999993
10
69.500000000000014
20
47.499999999999993
42
0.20525770195463588
10
76.74137931034484
20
50.603448275862057
42
-1.0246876416785298
10
83.103448275862064
20
44.241379310344826
42
0.20525770195463588
10
80
20
37
10
80
20
-36.999999999999993
42
0.20525770195463588
10
83.103448275862064
20
-44.241379310344804
42
-1.024687641678532
10
76.741379310344826
20
-50.603448275862064
42
0.20525770195463625
10
69.5
20
-47.499999999999993
10
-69.500000000000014
20
-47.499999999999993
42
0.20525770195463588
10
-76.74137931034484
20
-50.603448275862057
42
-1.0246876416785298
10
-83.103448275862064
20
-44.241379310344826
42
0.20525770195463588
10
-80
20
-37
10
-80
20
36.999999999999972
42
0.20525770195463641
0
ENDSEC
0
SECTION
2
OBJECTS
0
DICTIONARY
5
C
100
AcDbDictionary
3
ACAD_GROUP
350
D
3
ACAD_MLINESTYLE
350
17
0
DICTIONARY
5
D
100
AcDbDictionary
0
DICTIONARY
5
1A
330
C
100
AcDbDictionary
0
DICTIONARY
5
17
100
AcDbDictionary
0
ENDSEC
0
EOF
